<svg width="28" height="34" viewBox="0 0 34 34" fill="none" xmlns="http://www.w3.org/2000/svg">
<path d="M0 4C0 1.79086 1.79086 0 4 0H30C32.2091 0 34 1.79086 34 4V30C34 32.2091 32.2091 34 30 34H4C1.79086 34 0 32.2091 0 30V4Z" fill="#142eaf"/>
<path fill-rule="evenodd" clip-rule="evenodd" d="M17.4167 11.1667C17.8769 11.1667 18.25 11.5398 18.25 12V15.75H22C22.4603 15.75 22.8334 16.1231 22.8334 16.5833V17.4167C22.8334 17.8769 22.4603 18.25 22 18.25H18.25V22C18.25 22.4602 17.8769 22.8333 17.4167 22.8333H16.5834C16.1231 22.8333 15.75 22.4602 15.75 22L15.7492 18.25H12C11.5398 18.25 11.1667 17.8769 11.1667 17.4167V16.5833C11.1667 16.1231 11.5398 15.75 12 15.75H15.75V12C15.75 11.5398 16.1231 11.1667 16.5834 11.1667H17.4167Z" fill="white"/>
</svg>
